<svg xmlns="http://www.w3.org/2000/svg" viewBox="0 0 500 180" xmlns:bx="https://boxy-svg.com">
  <defs>
    <bx:grid x="0" y="0" width="2.5" height="2.5"></bx:grid>
  </defs>
  <g transform="matrix(1, 0, 0, 1, -42.5, -155.875961)">
    <bx:title>JDS</bx:title>
    <g transform="matrix(1, 0, 0, 1, -52.506683, 7.50015)" style="">
      <bx:title>J</bx:title>
      <path style="stroke-width: 4px;" d="M 245.007 188.376 C 220.007 188.376 205.007 203.376 205.007 228.376 C 205.007 245.383 205.007 268.376 205.007 273.376 C 205.007 308.376 185.007 328.376 150.007 328.376 C 115.007 328.376 95.007 308.376 95.007 273.376 C 95.007 268.376 95.007 243.376 95.007 238.376 C 95.007 225.876 102.507 218.376 115.007 218.376 C 127.507 218.376 135.007 225.876 135.007 238.376 C 135.007 243.376 135.007 268.376 135.007 273.376 C 135.007 283.376 140.007 288.376 150.007 288.376 C 160.007 288.376 165.007 283.376 165.007 273.376 C 165.007 268.376 165.007 232.55 165.007 228.376 C 165.007 175.876 192.507 148.376 245.007 148.376 C 250.007 148.376 270.007 148.376 275.007 148.376 C 327.507 148.376 355.007 175.876 355.007 228.376 C 355.007 233.376 354.902 233.377 355.007 238.376 C 355.274 251.037 347.507 258.376 335.007 258.376 C 322.507 258.376 315.274 251.037 315.007 238.376 C 314.919 234.203 315.007 233.376 315.007 228.376 C 315.007 203.376 300.007 188.376 275.007 188.376 C 270.007 188.376 249.181 188.376 245.007 188.376 Z"></path>
    </g>
    <g transform="matrix(1, 0, 0, 1, 0.000015, -42.500046)" style="">
      <bx:title>S</bx:title>
      <path style="stroke-width: 4px;" d="M 445 323.376 C 445 358.376 425 378.376 390 378.376 C 386.163 378.376 199.215 378.376 195 378.376 C 187.5 378.376 182.5 373.376 182.5 365.876 C 182.5 360.876 182.5 290.876 182.5 288.376 C 182.5 275.876 190 268.376 202.5 268.376 C 215 268.376 222.5 275.876 222.5 288.376 C 222.5 290.876 222.5 328.376 222.5 333.376 C 222.5 335.876 225 338.376 227.5 338.376 C 230.596 338.376 386.163 338.376 390 338.376 C 400 338.376 405 333.376 405 323.376 C 405 313.376 400 308.376 390 308.376 C 385 308.376 385 308.376 380 308.376 C 345 308.376 325 288.376 325 253.376 C 325 218.376 345 198.376 380 198.376 C 385 198.376 420 198.376 425 198.376 C 437.5 198.376 445 205.876 445 218.376 C 445 230.876 437.5 238.376 425 238.376 C 420 238.376 385 238.376 380 238.376 C 370 238.376 365 243.376 365 253.376 C 365 263.376 370 268.376 380 268.376 C 385 268.376 385 268.376 390 268.376 C 425 268.376 445 288.376 445 323.376 Z"></path>
    </g>
  </g>
  <g transform="matrix(1.149999, 0, 0, 1.149999, -57.374527, -183.132004)" style="">
    <bx:title>Star</bx:title>
    <path style="" d="M 375.978 211.419 C 410.76 211.419 428.152 194.027 428.152 159.245 C 428.152 194.027 445.544 211.419 480.326 211.419 C 445.544 211.419 428.152 228.811 428.152 263.593 C 428.152 228.811 410.76 211.419 375.978 211.419 Z"></path>
  </g>
</svg>
