<svg xmlns="http://www.w3.org/2000/svg" fill="none" viewBox="0 0 128 128">
    <path
        d="M 84.894 100.849 C 79.618 101.838 74.54 98.363 73.553 93.087 L 60.145 21.44 C 59.157 16.169 62.639 11.089 67.913 10.104 C 73.188 9.116 78.263 12.592 79.249 17.87 L 92.656 89.508 C 93.643 94.786 90.169 99.86 84.894 100.849 Z M 49.366 122.329 C 44.086 123.314 39.014 119.843 38.026 114.566 L 35.343 100.235 C 34.356 94.96 37.833 89.882 43.113 88.898 C 48.381 87.907 53.462 91.384 54.45 96.661 L 57.134 110.986 C 58.115 116.265 54.642 121.341 49.366 122.329 Z"/>
    <style>
        path { fill: #000; }
        @media (prefers-color-scheme: dark) {
            path { fill: #FFF; }
        }
    </style>
</svg>