<svg xmlns="http://www.w3.org/2000/svg" viewBox="0 0 298 146" >

  <path d="M 138 0 L 251.398 0 L 251.398 20.531 L 272.398 20.531 L 272.398 0 L 298 0 L 298 106.181 L 270.597 106.181 L 270.597 56.831 L 257.248 37.031 L 232.048 37.031 L 232.048 53.381 L 248.698 53.381 L 253.198 59.981 L 253.198 106.181 L 225.748 106.181 L 225.748 122.531 L 298 122.531 L 298 146 L 138 146 L 138 0 Z M 158.304 39.581 L 158.304 56.231 L 200.753 56.231 L 200.753 69.281 L 170.453 69.281 L 146.304 94.481 L 146.304 102.431 L 159.804 122.531 L 192.503 122.531 L 200.753 117.581 L 200.753 122.531 L 218.904 122.531 L 218.904 55.031 L 208.404 39.581 L 158.304 39.581 Z M 165.054 99.131 L 165.054 98.831 L 177.203 86.381 L 200.154 86.381 L 200.154 105.581 L 167.904 105.581 L 165.054 99.131 Z" style=""></path>
  <path d="M 13.35 39.607 L 58.35 39.607 L 70.8 58.057 L 59.1 70.207 L 50.1 57.007 L 21.45 57.007 L 18.15 60.457 L 18.15 100.207 L 22.8 107.107 L 51.6 107.107 L 61.8 96.757 L 70.5 109.807 L 58.2 122.557 L 13.2 122.557 L 0 102.907 L 0 53.407 L 13.35 39.607 Z M 62.099 10.357 L 62.099 27.157 L 80.699 27.157 L 80.699 102.607 L 94.199 122.557 L 128.549 122.557 L 128.549 105.757 L 103.049 105.757 L 98.699 99.307 L 98.699 18.757 L 84.449 10.357 L 62.099 10.357 Z" style="text-wrap-mode: nowrap;"></path>
</svg>
