<svg xmlns="http://www.w3.org/2000/svg" viewBox="0 0 301 337" xmlns:bx="https://boxy-svg.com">
  <defs>
    <bx:grid x="0" y="0" width="1" height="1"></bx:grid>
  </defs>
  <path style="" d="M 31.261 161.766 L 143.767 207.719 L 143.767 302.001 L 31.261 256.049 L 31.261 161.766 Z M 269.74 256.049 L 157.236 302.001 L 157.236 207.719 L 269.74 161.766 L 269.74 256.049 Z M 269.74 146.712 L 157.236 192.666 L 157.236 149.089 L 181.004 138.789 L 210.319 148.297 L 225.372 122.152 L 269.74 103.137 L 269.74 146.712 Z M 209.526 61.938 L 198.434 63.522 L 169.12 95.214 L 206.357 89.668 L 216.657 78.576 L 216.657 67.484 L 209.526 61.938 Z M 143.767 107.89 L 72.46 86.499 L 62.953 56.392 L 81.175 35 L 108.113 35 L 158.028 85.706 L 191.304 48.469 L 215.072 46.092 L 230.918 60.353 L 231.71 84.122 L 214.28 103.137 L 174.666 108.683 L 211.903 119.775 L 203.188 133.243 L 154.859 118.19 L 106.528 151.466 L 88.306 144.335 L 143.767 107.89 Z M 79.591 59.561 L 84.344 74.614 L 143.767 92.837 L 102.567 50.054 L 88.306 50.054 L 79.591 59.561 Z M 31.261 103.137 L 90.683 127.697 L 60.576 145.92 L 107.321 164.935 L 136.635 145.128 L 143.767 148.297 L 143.767 192.666 L 31.261 146.712 L 31.261 103.137 Z"></path>
</svg>
