<svg
			xmlns="http://www.w3.org/2000/svg"
			viewBox="0 0 98 22"
		>
			<g
				fill="black" transform="matrix(1, 0, 0, 1, -160, -272)"
			>
				<path
					class=""
					d="M 186 281 L 192 283 L 192 288 L 200 288 L 200 294 L 192 294 L 186 294 L 186 281 Z M 160 278 L 160 272 L 204 272 C 207 272 210 275 210 278 L 210 286 C 210 288 212 288 212 288 L 229 288 C 233 288 230 281 230 281 L 236 283 C 236 283 237 285 237 288 C 237 291 234 294 231 294 L 210 294 C 207 294 204 291 204 288 L 204 280 C 204 280 204 278 202 278 L 160 278 Z M 176 281 L 182 283 L 182 288 C 182 291 179 294 176 294 L 160 294 L 160 288 L 174 288 C 174 288 176 288 176 286 L 176 281 Z M 237 272 L 237 278 L 222 278 C 218 278 221 284 221 284 L 215 283 C 215 283 214 281 214 278 C 214 275 217 272 220 272 L 237 272 Z"
					style="stroke: none"></path>
				<path
					d="M 244 280 L 247 272 L 250 280 L 258 283 L 250 286 L 247 294 L 244 286 L 236 283 L 244 280 Z"
					style="stroke: none"
				>
				</path>
			</g>
			</svg>

