<svg xmlns="http://www.w3.org/2000/svg" viewBox="0 0 466 369" xmlns:bx="https://boxy-svg.com">
  <path stroke="none" d="M 424.813 308.178 C 419.829 318.999 412.795 327.91 403.059 334.8 C 406.735 326.865 408.455 318.561 408.579 309.74 C 397.566 321.575 385.651 332.318 372.339 341.349 C 372.922 342.736 374.008 343.033 374.789 343.675 C 375.578 344.324 376.824 344.19 377.58 345.438 C 374.313 346.396 371.047 346.562 367.825 346.505 C 365.193 346.459 362.939 347.131 360.705 348.412 C 343.52 358.264 325.062 364.496 305.412 366.71 C 287.467 368.733 269.615 367.999 252.34 361.976 C 227.071 353.167 211.247 335.023 201.851 310.58 C 199.956 305.652 198.549 300.572 197.1 295.377 C 195.625 295.632 194.939 296.685 194.108 297.496 C 177.09 314.095 159.262 329.731 139.475 342.993 C 124.877 352.777 109.503 361.038 92.371 365.501 C 80.707 368.539 68.904 370.004 56.975 366.989 C 47.371 364.561 40.965 358.704 38.391 349.008 C 37.949 347.345 37.325 346.565 35.495 346.44 C 28.548 345.967 21.799 344.602 15.455 341.577 C 9.314 338.651 4.28 334.567 1.681 328.103 C -0.545 322.575 -0.618 316.911 1.795 311.424 C 5.669 302.617 19.053 300.857 25.106 308.384 C 29.718 314.117 32.245 321.019 35.282 327.622 C 35.999 329.185 36.577 330.818 37.663 332.113 C 38.24 332.209 38.355 331.817 38.428 331.509 C 42.016 315.846 50.424 302.703 60.059 290.215 C 65.883 282.665 72.148 275.484 78.846 268.697 C 80.234 267.291 80.754 265.826 80.754 263.866 C 80.707 204.937 80.754 146.008 80.655 87.078 C 80.645 79.913 80.167 72.721 78.461 65.696 C 76.948 59.472 73.667 54.434 68.327 50.809 C 67.822 50.471 67.349 50.087 66.902 49.686 C 66.73 49.53 66.663 49.26 66.195 48.397 C 85.964 48.464 105.331 47.856 124.546 46.733 C 124.917 47.596 124.6 47.892 124.224 48.121 C 115.791 53.243 112.065 61.329 110.208 70.532 C 108.832 77.349 108.649 84.286 108.644 91.212 C 108.615 139.567 108.627 187.924 108.639 236.281 C 108.64 237.205 108.414 238.169 108.948 239.239 C 111.438 238.05 113.109 235.908 115.083 234.19 C 135.419 216.506 156.406 199.616 177.456 182.799 C 185.985 175.986 194.475 169.124 203.067 162.392 C 204.885 160.968 205.936 159.315 206.526 157.137 C 212.402 135.46 220.11 114.44 229.405 94.004 C 238.137 74.801 248.061 56.269 260.471 39.151 C 268.793 27.675 277.901 16.896 289.571 8.628 C 296.433 3.767 303.816 0.023 312.53 0.002 C 321.237 -0.014 326.88 5.488 327.554 14.244 C 328.596 27.764 324.133 39.796 317.751 51.303 C 310.219 64.885 300.374 76.736 289.847 88.05 C 269.979 109.411 247.881 128.354 225.649 147.142 C 223.462 148.991 222.072 151.025 221.37 153.921 C 217.36 170.483 214.007 187.171 211.684 204.045 C 209.31 221.292 207.94 238.634 208.52 256.06 C 208.743 262.759 209.538 269.438 210.135 276.905 C 214.134 272.666 217.655 269.02 221.081 265.287 C 238.954 245.819 255.921 225.566 272.978 205.391 C 295.906 178.272 318.527 150.872 343.865 125.905 C 358.393 111.59 373.583 98.065 391.346 87.759 C 396.147 84.977 401.107 82.497 406.313 80.563 C 407.856 79.991 408.448 79.195 408.366 77.521 C 408.111 72.311 407.376 67.194 405.646 62.254 C 403.954 57.424 400.869 53.669 396.657 50.804 C 396.088 50.419 395.539 50.003 395.004 49.572 C 394.892 49.478 394.884 49.26 394.812 49.057 C 395.424 47.991 396.491 48.381 397.353 48.397 C 409.312 48.62 421.256 47.939 433.208 47.773 C 437.963 47.71 442.71 47.227 447.462 46.961 C 449.327 46.857 451.205 46.566 453.221 47.013 C 453.023 47.377 452.965 47.674 452.791 47.778 C 444.175 53.087 440.23 61.297 438.413 70.839 C 437.186 77.292 437.276 76.101 442.605 77.412 C 451.476 79.596 459.153 83.589 462.768 92.533 C 466.48 101.716 465.591 110.841 460.921 119.551 C 459.762 121.714 458.02 123.44 455.738 124.501 C 453.985 125.318 452.193 125.5 450.562 124.288 C 448.881 123.04 448.392 121.236 448.601 119.213 C 449.059 114.804 451.473 111.086 452.954 107.035 C 454.676 102.334 455.527 97.504 455.04 92.517 C 454.684 88.856 452.711 86.095 449.763 83.943 C 446.153 81.311 442.054 80.225 437.8 79.7 C 436.958 80.797 437.248 81.873 437.216 82.877 C 436.357 109.994 436.947 137.115 436.768 164.232 C 436.738 168.825 436.779 173.418 436.759 178.011 C 436.754 179.293 436.962 180.319 438.259 181.033 C 446.763 185.707 450.463 193.481 451.778 202.622 C 453.68 215.832 451.42 228.643 447.578 241.237 C 444.792 250.366 441.251 259.219 436.732 267.629 C 434.516 271.754 434.514 276.285 433.618 280.654 C 431.684 290.085 429.187 299.326 424.813 308.178 M 408.946 237.53 C 408.944 220.458 408.952 203.386 408.935 186.315 C 408.932 183.182 408.658 182.979 405.913 183.8 C 401.339 185.167 396.933 186.975 392.725 189.214 C 374.604 198.857 359.933 212.568 346.969 228.256 C 335.377 242.285 325.762 257.567 318.113 274.084 C 317.66 275.066 317.291 276.516 315.776 275.805 C 314.331 275.126 315.385 274.001 315.737 273.151 C 317.924 267.87 320.351 262.699 322.991 257.626 C 333.598 237.254 346.672 218.723 363.763 203.224 C 375.922 192.198 389.483 183.539 405.612 179.572 C 408.288 178.914 408.991 177.814 408.983 175.213 C 408.893 146.877 408.925 118.537 408.886 90.203 C 408.883 87.978 409.082 85.721 408.513 83.256 C 404.58 83.839 401.299 85.794 397.978 87.53 C 381.703 96.043 367.757 107.701 354.48 120.191 C 330.145 143.085 308.405 168.387 286.751 193.758 C 263.022 221.559 239.894 249.889 214.721 276.421 C 211.42 279.9 210.492 283.227 211.725 287.542 C 211.89 288.121 211.992 288.72 212.099 289.315 C 214.924 305.036 219.634 320.072 228.494 333.54 C 237.898 347.838 250.657 357.554 267.344 362.035 C 279.966 365.423 292.729 365.145 305.494 363.775 C 318.807 362.345 331.63 358.787 343.942 353.469 C 348.85 351.349 353.706 349.121 358.672 346.18 C 357.861 345.909 357.484 345.724 357.087 345.659 C 351.923 344.822 346.967 343.324 342.347 340.849 C 333.035 335.86 326.929 328.234 328.746 315.626 C 330.219 305.401 342.844 300.073 351.154 306.296 C 355.126 309.271 357.021 313.748 359.092 317.999 C 362.011 323.99 364.564 330.159 367.734 336.03 C 369.612 339.507 369.841 339.51 373.098 337.213 C 385.623 328.383 396.839 318.124 406.907 306.573 C 408.395 304.866 408.974 303.17 408.968 300.964 C 408.917 279.992 408.942 259.021 408.946 237.53 M 192.006 248.969 C 192.277 220.866 196.632 193.322 203.801 165.611 C 203.01 166.231 202.744 166.433 202.486 166.644 C 184.161 181.585 166.018 196.744 148.12 212.193 C 135.205 223.341 122.564 234.796 110.308 246.671 C 109.363 247.587 108.501 248.486 108.583 249.985 C 108.71 252.324 108.305 254.645 108.17 256.973 C 107.392 270.311 105.512 283.452 101.361 296.192 C 97.087 309.311 90.696 321.18 80.447 330.675 C 78.679 332.315 76.912 334.038 74.338 335.289 C 74.509 334.53 74.52 334.171 74.67 333.893 C 79.22 325.617 80.473 316.566 80.676 307.336 C 80.858 299.022 80.728 290.701 80.702 282.384 C 80.697 281.481 80.983 280.506 80.312 279.524 C 79.953 279.857 79.6 280.103 79.345 280.424 C 70.609 291.349 62.752 302.843 57.116 315.706 C 52.41 326.428 49.436 337.52 50.304 349.407 C 51.032 359.32 57.142 365.182 67.079 365.574 C 79.231 366.055 90.795 363.428 102.058 359.191 C 117.5 353.382 131.413 344.797 144.74 335.225 C 162.441 322.511 178.559 307.927 194.318 292.926 C 195.649 291.66 195.811 290.298 195.511 288.695 C 193.081 275.74 192.036 262.66 192.006 248.969 M 288.947 84.728 C 289.295 84.343 289.643 83.953 289.991 83.568 C 301.098 71.245 311.414 58.354 318.501 43.197 C 322.697 34.222 325.246 24.883 324.625 14.837 C 324.23 8.436 321.079 4.105 315.625 3.106 C 313.411 2.701 311.143 2.763 308.908 3.153 C 300.278 4.671 293.449 9.466 287.259 15.279 C 276.415 25.471 268.236 37.695 260.935 50.529 C 245.917 76.928 235.15 105.085 226.671 134.168 C 225.723 137.42 224.483 140.62 224.123 144.122 C 225.449 144.065 226.035 143.222 226.726 142.631 C 233.436 136.889 240.15 131.15 246.803 125.344 C 261.426 112.578 275.525 99.266 288.947 84.728 M 448.418 201.173 C 447.259 195.422 444.914 190.322 440.321 186.462 C 439.591 185.848 438.844 185.119 437.789 185.617 C 436.754 186.105 436.772 187.127 436.763 188.092 C 436.76 188.525 436.76 188.958 436.76 189.391 C 436.763 206.622 436.767 223.854 436.769 241.085 C 436.77 247.507 436.769 253.927 436.769 260.519 C 441.817 249.919 445.649 239.038 447.818 227.606 C 449.453 218.986 450.211 210.321 448.418 201.173 Z"></path>
</svg>
