<svg xmlns="http://www.w3.org/2000/svg" viewBox="0 0 500 500" xmlns:bx="https://boxy-svg.com">
  <defs>
    <bx:grid x="0" y="0" width="4" height="4"></bx:grid>
  </defs>
  <path d="M 174.619 0.165 L 461.42 0 C 471.659 -0.007 481.474 4.055 488.707 11.291 C 495.945 18.526 500.005 28.341 500 38.577 L 499.827 325.373 C 499.815 340.988 490.403 355.069 475.976 361.053 C 461.549 367.035 444.947 363.741 433.915 352.71 L 147.29 66.085 C 136.261 55.053 132.966 38.45 138.945 24.019 C 144.926 9.586 159.016 0.186 174.619 0.165 Z" style="transform-origin: 389.652px 110.341px;"></path>
  <path style="" d="M 400.001 428.002 L 400 500 L 0 499.998 L 0 100 L 72 100 L 72 428 L 400.001 428.002 Z"></path>
</svg>
